<svg id="Layer_16" data-name="Layer 16" xmlns="http://www.w3.org/2000/svg" viewBox="0 0 384.0181 299.7409">
  <title>asphalt</title>
  <g>
    <path d="M337.6048,101.0056q-188.0121-.0144-376.0242.0032c-1.2395,0-2.4785.1637-3.7185.251v181.5c1.3686.0668,2.7371.1924,4.1056.1926q187.6371.0082,375.2744.0081h4.3568v-181.77C340.2554,101.1256,338.93,101.0056,337.6048,101.0056ZM3.0456,202.8162c-6.6954-.21-11.2009-5.855-10.9282-12.3465.27-6.4349,5.2679-11.1885,12.0451-11.293,5.7391-.0882,11.4809-.0182,17.2209-.0182h0c5.6156-.001,11.2322-.07,16.8465.0169,6.7782.1047,11.7992,4.8867,12.032,11.3021.2376,6.557-4.2032,12.1276-10.9168,12.3376Q21.1809,203.3848,3.0456,202.8162Zm105.1053-23.6629c5.6175.0064,11.2363-.063,16.8528.0244,6.6912.1043,11.8223,4.971,12.0912,11.3111.2718,6.408-4.3305,12.1176-11.0057,12.3253q-18.17.56-36.3116-.0066l-.0635-.0037a11.6747,11.6747,0,0,1-10.9565-12.3511c.3888-6.3937,5.47-11.1105,12.1659-11.292.25-.007.499-.007.749-.007h16.4784Zm68.3139,23.643c-6.6849-.212-11.16-5.9085-10.8723-12.4069.28-6.3211,5.4171-11.0675,12.1571-11.2311.25-.0061.4989-.0047.7489-.0047h16.4772c5.6173.0084,11.2357-.0678,16.8516.0279a11.9061,11.9061,0,0,1,12.06,11.3765c.3156,6.0775-4.3336,11.98-10.7436,12.1988C200.9288,203.1742,188.681,203.1835,176.4648,202.7963ZM298.4882,179.175c6.7826.105,11.7987,4.8833,12.0287,11.3033.2356,6.5631-4.1979,12.1258-10.9144,12.3357q-18.1643.5718-36.2987-.0014c-6.72-.2124-11.1832-5.8156-10.9164-12.3433.2637-6.448,5.2447-11.1307,12.0337-11.3107.2494-.0066.4987-.005.7487-.005h16.4721l0,0C287.2575,179.1574,292.874,179.0883,298.4882,179.175Z" transform="translate(42.1382 -42.1378)"/>
    <path d="M336.8305,77.1312h4.9406c0-7.3348.3013-14.2019-.0986-21.0279a13.0736,13.0736,0,0,0-7.7735-11.5989,27.5592,27.5592,0,0,0-10.8155-2.1829q-172.8074.0357-345.6145-.1836c-9.6679-.0122-16.4135,3.215-19.6069,12.6219l0,22.5c1.7469-.0429,3.4934-.1229,5.24-.1229Q149.9663,77.1314,336.8305,77.1312Z" transform="translate(42.1382 -42.1378)"/>
    <path d="M322.356,341.7761a42.3879,42.3879,0,0,0,5.9768-.2891c6.6416-.9494,12.1314-5.2347,12.8579-11.7883.8261-7.453.1909-15.0676.1909-22.85h-4.9033q-186.873.0024-373.7461-.0036c-1.6237,0-3.2467-.0553-4.87-.0853l0,22.5c3.1982,9.4033,9.96,12.63,19.6123,12.6185Q149.9153,341.7952,322.356,341.7761Z" transform="translate(42.1382 -42.1378)"/>
  </g>
</svg>
