<svg id="Layer_1" data-name="Layer 1" xmlns="http://www.w3.org/2000/svg" viewBox="0 0 308.1062 351.8607">
  <title>duplikat</title>
  <g>
    <path d="M575.145,298.9359q.0007,64.4958,0,128.9917c0,15.1515-8.946,24.31-24.1749,24.3258q-107.9929.1158-215.986.0579c-14.6229-.0084-23.8549-9.5329-23.9289-24.2481-.0244-4.8329-.1564-9.6716.03-14.4973.1541-3.9834-1.18-5.7854-5.4558-5.56-5.4837.2891-10.9984.1634-16.4943.0148-12.662-.3424-22.0526-9.6967-22.0589-22.3162q-.0663-131.2415.0376-262.483c.0087-12.2128,8.2239-21.1607,20.2925-22.4938a54.7076,54.7076,0,0,1,5.9879-.2316q105.7433-.0153,211.4863-.0249c6.9841-.0029,13.6013.7319,18.9553,5.9737,4.5049,4.41,7.1109,9.61,7.2494,15.9133.1282,5.83.1076,11.6658.0476,17.498-.0325,3.1532,1.3252,4.5278,4.5169,4.4639,5.3306-.1069,10.666-.07,15.998.0068,14.1031.2035,23.4473,9.481,23.47,23.6174Q575.2254,233.44,575.145,298.9359Zm-66.3282-44.6778c0-41.8177-.074-83.6356.0974-125.4525.0205-4.9983-1.3823-6.504-6.4846-6.4915q-103.2106.2546-206.4221.1325c-6.6528.0012-6.706.024-6.7074,6.6428q-.027,125.203-.0189,250.4061c0,6.5325.2565,6.7625,6.7164,6.7619q102.9612-.0087,205.9226-.0286c6.86-.0014,6.89-.0206,6.8921-7.0176Q508.8273,316.7345,508.8168,254.2581Zm44.0909,43.51h.0151q0-61.7427-.0013-123.4852c0-1.3331-.0329-2.6662-.0257-3.9992.0155-2.8629-1.2262-4.2916-4.2568-4.1279-2.8252.1527-5.6652.0022-8.4971.062-8.8507.1869-8.99-1.9685-8.9879,8.7643.0107,69.1586-.2074,138.3183.1927,207.4745.0765,13.2138-9.2678,25.6546-25.4591,25.4809-52.6544-.5647-105.3187-.2111-157.9791-.211-14.5862,0-14.5862,0-14.5454,14.7483.0208,7.53.0208,7.5449,7.3631,7.546q102.4878.0155,204.9758.0192c7.151,0,7.1991-.0344,7.2008-7.2867Q552.918,360.2611,552.9077,297.7686Z" transform="translate(-267.0526 -100.4712)"/>
    <path d="M399.5041,320.1737c25,0,50-.06,74.9989.0309,9.5244.0347,15.252,7.9838,10.9429,15.5957-1.49,2.6329-5.0092,4.6465-8.0356,5.7274-2.8386,1.0138-6.2508.52-9.4107.5213q-70.7493.0357-141.4986.0118a30.6921,30.6921,0,0,1-4.9813-.2592c-6.3773-1.0547-10.18-5.4479-9.8248-11.189.3713-5.9943,4.8579-10.238,11.3106-10.372,6.83-.1418,13.6659-.0375,20.4991-.0378q28-.0015,56,0Z" transform="translate(-267.0526 -100.4712)"/>
    <path d="M398.9536,297.6c-25.1633,0-50.33-.2341-75.4883.12-9.5084.1338-13.9676-9.0344-10.8082-15.1249,2.1225-4.0915,5.2486-6.3328,9.8853-6.3484q8.9988-.03,17.9975-.0267,66.4912-.0041,132.9822.0924a17.973,17.973,0,0,1,8.8849,2.2753c3.8468,2.33,5.2835,6.4,4.0713,10.8882-1.29,4.7763-4.3053,7.8266-9.5369,8.0658-1.9965.0913-3.998.1-5.9973.1q-35.9952.01-71.99.0042Z" transform="translate(-267.0526 -100.4712)"/>
    <path d="M399.5306,232.2708c25.1515,0,50.3033-.0741,75.4543.0392,9.0891.041,14.5914,7.5645,10.6,14.9093-1.506,2.7712-5.3045,4.4009-8.2613,6.2206-.9874.6077-2.6074.2311-3.9382.2311q-73.9556-.0014-147.9111-.0279c-7.8793-.0042-11.2442-1.9444-13.1965-7.3812-2.1982-6.1219,1.8488-13.0374,8.3152-13.7407a107.2843,107.2843,0,0,1,11.4781-.27q33.73-.03,67.4595-.01Z" transform="translate(-267.0526 -100.4712)"/>
    <path d="M424.204,166.1967c16.9748-.003,33.95-.09,50.9241.0318,9.1936.066,14.4385,8.5312,10.2523,16.2279-2.25,4.1359-6.17,5.6013-10.459,5.611q-50.9235.1145-101.8474-.0789c-7.1055-.0364-11.8579-4.9009-11.7476-10.9627.115-6.33,5.1212-10.7794,12.4527-10.8065C390.5872,166.1572,407.3957,166.2,424.204,166.1967Z" transform="translate(-267.0526 -100.4712)"/>
  </g>
</svg>
