<svg id="Layer_1" data-name="Layer 1" xmlns="http://www.w3.org/2000/svg" viewBox="0 0 798.2988 797.2982">
  <title>form</title>
  <g>
    <path d="M-272.0551,183.6961c5.0518-3.5747,9.11-6.3659,13.0843-9.2729,14.8941-10.895,29.2328-22.662,44.79-32.5052,14.7444-9.3287,30.7808-6.9992,45.9439.2556,16.0576,7.6827,27.8261,20.3836,38.2477,34.4337,13.4532,18.1373,23.9888,37.6535,27.4063,60.3246,1.97,13.0677,1.4192,26.0848-4.3149,38.1795a38.451,38.451,0,0,1-9.6958,12.2553c-6.0549,5.1723-12.9342,9.3765-19.4406,14.0238-4.8389,3.4564-9.8953,6.5042-12.8848,12.1688-1.3684,2.5929-4.44,4.4317-7.0105,6.2239q-55.9509,39.013-112.0363,77.8323c-3.13,2.1615-4.1776,4.3975-4.1725,8.1282q.1638,119.7292.104,239.4589c.0224,28.6768-7.7695,54.6668-26.6249,76.6261-18.598,21.66-42.3809,33.0283-71.0552,33.0463q-205.7166.1293-411.4329-.0756c-50.3895-.0973-86.25-24.5227-109.337-68.5067-6.517-12.4155-9.214-26.0243-9.2151-40.07q-.01-125.4765.0375-250.9531-.0014-129.9759-.05-259.9517c-.0035-25.9954.6136-52.0067-.0927-77.9825-1.1134-40.9486,18.1588-68.72,53.8786-86.3225a130.9708,130.9708,0,0,1,58.46-13.2886q127.9778-.1174,255.9558-.0408,82.4855.008,164.9708.0993c21.3562.0482,41.3411,5.3445,58.76,18.0079,23.9862,17.4385,35.1537,41.8754,35.5338,70.9807.5439,41.6525.1719,83.3171.1906,124.9765C-272.0538,175.24-272.0551,178.7326-272.0551,183.6961ZM-504.5664,372.13c-4.5011,0-7.7877-.0007-11.0742,0q-109.9964.0276-219.9929.0551c-16.0063.0037-25.75-8.1061-25.709-21.3882.04-12.9793,9.85-21.1315,25.4443-21.1266q64.248.02,128.4961.0478,62.2482.0126,124.4965.0534c3.0574.0057,5.1533-.66,7.1384-3.2926,1.9485-2.5838,4.7938-4.5957,7.5066-6.4835q63.9987-44.5338,128.1178-88.894c3.0545-2.11,4.3326-4.2233,4.3152-8.0563-.168-36.9985-.0915-73.998-.1043-110.9972-.0076-21.8329.0641-43.6667-.1211-65.4982-.1088-12.8362-6.3793-20.85-18.9117-23.4106a102.9623,102.9623,0,0,0-20.354-1.65q-96.9956-.1409-193.9915-.0075-108.2448,0-216.49-.02a74.5614,74.5614,0,0,0-34.2507,7.97c-10.6949,5.4541-16.0473,13.4795-16.0008,26.2936.3628,99.9962.2295,199.9942.23,299.9916q0,144.9962.1,289.9921a29.9419,29.9419,0,0,0,3.2448,13.8942c10.61,19.2437,26.3759,31.2513,49.1626,31.3256,57.4981.1874,114.9971.0831,172.4958.0878q120.7472.01,241.4943.0169a27.0481,27.0481,0,0,0,20.12-8.5486c9.3558-9.6175,13.1636-21.4909,13.1815-34.5957q.1358-99.2547.0333-198.51a36.766,36.766,0,0,0-.49-4.0489c-10.7021,7.416-20.72,14.5936-31.0091,21.3581a39.0341,39.0341,0,0,1-11.697,5.2932c-32.31,8.0747-64.6836,15.8913-97.0412,23.7736-24.2686,5.9118-48.527,11.8663-72.8215,17.67-8.6727,2.0718-16.3209-.0472-21.9522-7.18-5.825-7.3788-6.5014-15.4514-2.0663-23.8452.5231-.99,1.0214-1.9931,1.7556-3.4289-1.7695-.1495-3.0357-.3486-4.302-.35q-37.7486-.0411-75.4972-.0391c-29.1656,0-58.3314.078-87.4967-.0046-14.5705-.0413-24.2675-10.711-22.4743-24.4049,1.43-10.9207,10.4-18.1956,22.6577-18.2052q85.4968-.0665,170.9937.026c6.9579.0185,13.9123,1.359,21.8488,2.1894Zm127.9987,49.1383L-195.122,295.21l-53.12-76.244-181.4057,126.04Zm-40.5716,16.2965-41.1734-59.1674c-16.8848,27.2012-33.3732,53.7635-50.5975,81.5116Zm257.6915-171.8343c2.615-1.841,4.605-3.72,6.96-4.8131,8.1317-3.7749,9.2552-10.0228,7.7512-18.1194-3.3047-17.7907-12.3278-32.6132-23.7451-46.0044-5.1943-6.0925-11.8149-11.0609-18.228-15.9645-1.8424-1.4087-5.8923-1.9915-7.7652-.9188-5.9924,3.4318-11.4383,7.8179-17.3808,12.0384Z" transform="translate(899.8505 42.3292)"/>
    <path d="M-586.1978,265.8949q-76.4526,0-152.9053-.0239c-15.8841-.02-26.1952-14.2218-20.8589-28.6548,2.908-7.8653,8.7463-12.5511,17.0738-13.4655a146.9353,146.9353,0,0,1,15.9677-.42q145.4064-.0306,290.8127.03a40.2338,40.2338,0,0,1,10.8672,1.119,20.8127,20.8127,0,0,1,14.6653,22.7419c-1.552,10.8028-9.8235,18.5105-20.7189,18.63-18.82.2062-37.6428.0786-56.4645.0811q-49.22.0066-98.4391.0012Z" transform="translate(899.8505 42.3292)"/>
    <path d="M-586.0044,170.2379q-76.2184,0-152.4368-.0175c-12.066-.01-20.96-7.0693-22.6192-17.6819-2.0871-13.3479,7.5794-24.7066,21.448-24.7876,23.8227-.1391,47.6469-.0507,71.4705-.0458q117.7025.0243,235.4051.0674c16.5509.0088,27.102,15.2535,20.5163,29.8253-3.7864,8.3779-10.581,12.58-19.8465,12.5819q-59.9754.011-119.9509.0087-16.9932.0009-33.9865,0Z" transform="translate(899.8505 42.3292)"/>
  </g>
</svg>
