<svg id="Layer_2" data-name="Layer 2" xmlns="http://www.w3.org/2000/svg" viewBox="0 0 100 100">
  <defs>
    <style>
      .cls-1 {
        fill: #4d639e;
      }

      .cls-2 {
        fill: #fff;
      }
    </style>
  </defs>
  <title>kat1</title>
  <rect class="cls-1" width="100" height="100" rx="20"/>
  <path class="cls-2" d="M580.1864,13.7867a2.5055,2.5055,0,0,0-4.273-1.7733l-3.4058,3.4137a19.997,19.997,0,0,1-14.1391,5.8588H547.69a5.004,5.004,0,0,0-5,4.9994v7.4992a5.0041,5.0041,0,0,0,5,4.9995v9.9989a2.497,2.497,0,0,0,2.5,2.5h4.9994a2.4971,2.4971,0,0,0,2.5-2.5V38.784h.68a19.9969,19.9969,0,0,1,14.1391,5.8587l3.4058,3.4059a2.5055,2.5055,0,0,0,4.273-1.7733V34.7532a5.1327,5.1327,0,0,0,2.5-4.7183,5.1325,5.1325,0,0,0-2.5-4.7182Zm-4.9994,5.9915V40.2916a24.987,24.987,0,0,0-16.8185-6.5071h-.68V26.2853h.68A24.9865,24.9865,0,0,0,575.187,19.7782Z" transform="translate(-512.6883 18.7174)"/>
</svg>
