<svg id="Layer_3" data-name="Layer 3" xmlns="http://www.w3.org/2000/svg" viewBox="0 0 100 100">
  <defs>
    <style>
      .cls-1 {
        fill: #e7d539;
      }

      .cls-2 {
        fill: #fff;
      }
    </style>
  </defs>
  <title>kat2</title>
  <rect class="cls-1" width="100" height="100" rx="20"/>
  <g>
    <path class="cls-2" d="M215.4031,111.27q-13.539,0-27.0778-.0029c-3.5727-.0034-4.9412-2.4-3.1406-5.5214q13.6011-23.5763,27.2239-47.14c1.8-3.1141,4.5515-3.1084,6.3577.0153q13.6243,23.5628,27.2255,47.139c1.7909,3.1036.4046,5.5037-3.1724,5.507Q229.1112,111.28,215.4031,111.27Zm23.1619-6.18L215.5841,65.28l-22.9817,39.81Z" transform="translate(-166.0044 -35.0217)"/>
    <path class="cls-2" d="M215.2205,93.29l6.9031,5.41c2.2032-1.5468,2.0517-1.22,4.5059-.0824a5.3947,5.3947,0,0,1,2.832,2.8078c.3664.7145,1.5585,1.0056,2.2673,1.8338H215.6493l5.7648-4.169-6.3161-4.95c1.054,1.4332.4812,2.663-.2629,3.9345-.853,1.4577-1.5515,3.01-2.47,4.4225a.8141.8141,0,0,1-.287.2543,1.168,1.168,0,0,1-1.7137-.8716.93.93,0,0,1,.029-.4025A21.6043,21.6043,0,0,1,212.1,97.6245a2.1068,2.1068,0,0,0-.4455-2.9606,22.0728,22.0728,0,0,1-1.736-1.9945q-.9075,4.3269-1.8145,8.6339a1.426,1.426,0,0,1-.6826,1.3987,1.1756,1.1756,0,0,1-1.7427-.4743.5658.5658,0,0,1-.0526-.3734,37.3245,37.3245,0,0,0,1.1905-11.21c-.0143-.6463.5039-1.3044,1.2633-2.3437l-2.3162-1.4833.2123-.4279,1.32.4847c.0616-.1191.1407-.2506.1986-.3908a3.0711,3.0711,0,0,0,.0847-.327c.3806-1.3308.5115-3.6347,1.1907-3.81a17.813,17.813,0,0,1,6.5129-.1608c.7264.09,1.2573,1.4555,1.951,2.1664,1.5758,1.615,1.7058,3.19.2695,5.0241A32.6612,32.6612,0,0,0,215.2205,93.29Zm-.6533-3.6145-.2341-.2481-2.5359,1.2179,1.6192,1.1089Z" transform="translate(-166.0044 -35.0217)"/>
    <path class="cls-2" d="M219.7366,85.3535a2.091,2.091,0,0,1-2.0393-2.0906,2.0994,2.0994,0,1,1,4.1921.1453A2.0788,2.0788,0,0,1,219.7366,85.3535Z" transform="translate(-166.0044 -35.0217)"/>
  </g>
</svg>
