<svg id="Layer_4" data-name="Layer 4" xmlns="http://www.w3.org/2000/svg" viewBox="0 0 100 100">
  <defs>
    <style>
      .cls-1 {
        fill: #be2726;
      }

      .cls-2 {
        fill: none;
      }

      .cls-3 {
        fill: #fff;
      }
    </style>
  </defs>
  <title>kat3</title>
  <rect class="cls-1" width="100" height="100" rx="20"/>
  <g>
    <path class="cls-2" d="M113.89,410.17v1.1071q0,9.0516.0011,18.1032c.0006,1.4518.46,1.9226,1.904,1.9274q3.84.0129,7.68.0006c1.4949-.0042,1.94-.4632,1.94-1.9819q.003-9.0515.0009-18.1029v-1.01h41.4288v1.1151q0,9.0058.0024,18.0118c.0014,1.5157.4514,1.9639,1.9556,1.968q3.7029.01,7.4058.0014c1.7644-.0017,2.1438-.38,2.1444-2.15q.0035-8.9144.001-17.8289V410.169c.93,0,1.7488.02,2.5664-.0047,1.2037-.0359,1.7328-.5654,1.7346-1.7555q.012-7.7715,0-15.5432c-.0019-1.2-.52-1.6967-1.74-1.7137-.814-.0113-1.6283-.0022-2.56-.0022v-1.0816c-.0008-1.92.0151-3.84-.009-5.76-.0142-1.1243-.5341-1.6855-1.59-1.6938q-4.16-.0327-8.32,0c-1.053.0085-1.5669.5734-1.5817,1.7016-.0232,1.7673-.0075,3.5352-.0082,5.3029,0,.4779,0,.9559,0,1.455H124.6844c0-2.3284.0088-4.5822-.0037-6.8357-.0063-1.1563-.5155-1.6852-1.67-1.6931q-4.0684-.0276-8.1372-.001c-1.206.0073-1.7061.5319-1.7121,1.7464-.01,1.981-.0007,3.962-.0052,5.9429-.0007.2891-.0324.5782-.0526.9158-.6733,0-1.2493-.0066-1.8251.0013-1.2715.0175-1.7739.5078-1.7753,1.7717q-.0087,7.7259,0,15.4518c.0017,1.241.528,1.7622,1.7908,1.7916C112.1152,410.1851,112.9369,410.17,113.89,410.17Z" transform="translate(-96.6208 -357.5313)"/>
    <path class="cls-3" d="M114.9715,411.3878c-.9533,0-1.775.0156-2.5958-.0036-1.2628-.0294-1.7891-.5506-1.7907-1.7917q-.01-7.7257,0-15.4517c.0014-1.2639.5038-1.7542,1.7753-1.7717.5758-.0079,1.1518-.0013,1.8251-.0013.02-.3376.0519-.6268.0526-.9158.0045-1.981-.0047-3.962.0052-5.9429.006-1.2145.5061-1.7391,1.7121-1.7464q4.0684-.0248,8.1372.001c1.1544.0079,1.6636.5368,1.67,1.6931.0125,2.2536.0037,4.5073.0037,6.8357h42.1608c0-.499,0-.977,0-1.455.0007-1.7677-.015-3.5356.0082-5.3029.0148-1.1283.5287-1.6931,1.5816-1.7017q4.16-.0337,8.32,0c1.0563.0083,1.5762.5694,1.59,1.6938.0241,1.92.0081,3.84.009,5.76v1.0816c.9323,0,1.7466-.0092,2.56.0022,1.2208.0171,1.7385.5133,1.74,1.7137q.012,7.7716,0,15.5432c-.0019,1.19-.5309,1.72-1.7346,1.7555-.8177.0244-1.6366.0047-2.5664.0047v1.1617q0,8.9144-.001,17.8289c-.0007,1.77-.38,2.1479-2.1444,2.15q-3.7029.0038-7.4059-.0013c-1.5041-.0041-1.9542-.4523-1.9555-1.968q-.0081-9.0058-.0024-18.0118v-1.1151H126.4977v1.01q0,9.0514-.0009,18.1029c0,1.5188-.4453,1.9777-1.94,1.9819q-3.84.0108-7.68,0c-1.4436-.0049-1.9035-.4757-1.904-1.9274q-.0037-9.0516-.0011-18.1033Zm36.6231-16.0924c-3.346,0-6.4516-.0168-9.5563.0245a1.6744,1.6744,0,0,0-.9752.5448q-5.9658,5.9256-11.9,11.883c-.18.18-.3377.3832-.6272.7145h.9765c2.681,0,5.3623-.02,8.0429.0141a2.0257,2.0257,0,0,0,1.6012-.6624q5.8233-5.8741,11.6871-11.7084c.2068-.207.3987-.4289.7511-.81Zm-8.9278,13.1668c3.0215,0,5.7852-.0161,8.5485.0122a1.9352,1.9352,0,0,0,1.5238-.6191q5.8876-5.9327,11.81-11.8308c.1819-.182.3461-.3817.6149-.68-.4139-.0224-.6748-.0485-.9358-.0488-2.5272-.0031-5.0548.0171-7.5816-.0152a1.9224,1.9224,0,0,0-1.5111.6461q-5.8227,5.8684-11.6817,11.7008c-.2114.2116-.4109.4351-.7871.835Zm35.944-13.1057c-.3918-.027-.6506-.06-.91-.06-2.4974-.0039-4.9954-.03-7.4917.0233a2.1371,2.1371,0,0,0-1.33.56c-3.9883,3.9364-7.9427,7.9072-11.9035,11.8715-.18.18-.3375.3827-.625.7113,2.9154,0,5.6465.0287,8.3759-.0268a2.269,2.269,0,0,0,1.4158-.589c3.9689-3.9128,7.9-7.8642,11.8391-11.807C178.1671,395.8542,178.3375,395.6543,178.6108,395.3565Zm-63.0292,13.041c2.7331,0,5.3179-.0175,7.9021.0126a1.9315,1.9315,0,0,0,1.5177-.6331q5.8547-5.8989,11.7438-11.7634c.1809-.1811.3428-.3811.6025-.672-.4149-.021-.6781-.0457-.9413-.046-2.3137-.0031-4.6283-.0349-6.94.0253a2.272,2.272,0,0,0-1.4083.5882c-3.9676,3.9107-7.8977,7.8595-11.8363,11.8C116.0328,407.8975,115.8576,408.1,115.5816,408.3975Zm7.9275,21.1592v-18.06h-5.5507v18.06Zm47.4047-18.098v18.0866h5.5184V411.4587Zm9.8526-13.5839-10.522,10.5222h10.522Zm-56.6216-2.5217H113.5573v10.5877Zm-1.3513-8.6022h-5.5518v5.5638h5.5518Zm53.6568.0458h-5.5388v5.5154H176.45Z" transform="translate(-96.6208 -357.5313)"/>
  </g>
</svg>
