<svg id="Layer_5" data-name="Layer 5" xmlns="http://www.w3.org/2000/svg" viewBox="0 0 100 100">
  <defs>
    <style>
      .cls-1 {
        fill: #9b9b9b;
      }

      .cls-2 {
        fill: #fff;
      }
    </style>
  </defs>
  <title>kat4</title>
  <rect class="cls-1" width="100" height="100" rx="20"/>
  <g>
    <path class="cls-2" d="M309.6817,426.7736c.01-.1977.0231-.3191.0205-.44a16.6476,16.6476,0,0,0-12.4069-15.7277,21.6067,21.6067,0,0,0-7.0846-.429,15.7542,15.7542,0,0,0-9.4347,3.9511,16.3619,16.3619,0,0,0-5.225,8.559,12.7883,12.7883,0,0,0-.4221,4.0867Z" transform="translate(-241.5 -356.2826)"/>
    <path class="cls-2" d="M293.3,386.8085a10.501,10.501,0,1,0-1.2875,20.9574A10.5021,10.5021,0,0,0,293.3,386.8085" transform="translate(-241.5 -356.2826)"/>
    <path class="cls-2" d="M277.08,402.6387a7.6248,7.6248,0,1,0,0,.0213v-.0213Z" transform="translate(-241.5 -356.2826)"/>
    <path class="cls-2" d="M322.1487,402.62a7.5705,7.5705,0,0,0-7.4455-7.6937q-.0954-.0016-.1909-.0008a7.67,7.67,0,1,0-.0007,15.34,7.5856,7.5856,0,0,0,7.6373-7.5334q0-.0561,0-.112Z" transform="translate(-241.5 -356.2826)"/>
    <path class="cls-2" d="M277.8233,413.543c-.2563-.1392-.4085-.24-.5738-.3089a17.83,17.83,0,0,0-6.0454-1.2642c-1.4411-.0713-2.892.0491-4.3384.0893a15.3044,15.3044,0,0,0-4.9213,1.0343,7.5692,7.5692,0,0,0-3.9733,3.158,6.9559,6.9559,0,0,0-1.1375,4.1252c.0958.04.1318.069.1679.069q8.158.01,16.3161.0012a.6385.6385,0,0,0,.4543-.3524,19.1874,19.1874,0,0,1,3.156-5.4652C277.2109,414.2927,277.4875,413.9508,277.8233,413.543Z" transform="translate(-241.5 -356.2826)"/>
    <path class="cls-2" d="M327.1849,420.4634c-.0593-.4975-.0879-.88-.1527-1.257a7.4262,7.4262,0,0,0-2.7551-4.7983c-2.3962-1.8669-5.2575-2.2828-8.1482-2.4286a34.0318,34.0318,0,0,0-5.4207.2178,37.3629,37.3629,0,0,0-4.0986.9071c.3066.3892.4777.6433.6848.8636a18.141,18.141,0,0,1,3.6109,5.8962.8122.8122,0,0,0,.9254.6073q7.2974-.02,14.5947-.0081Z" transform="translate(-241.5 -356.2826)"/>
  </g>
</svg>
