<svg id="Layer_1" data-name="Layer 1" xmlns="http://www.w3.org/2000/svg" viewBox="0 0 100 100">
  <defs>
    <style>
      .cls-1 {
        fill: #4d639e;
      }

      .cls-2 {
        fill: #fff;
      }
    </style>
  </defs>
  <title>kat5</title>
  <rect class="cls-1" width="100" height="100" rx="20"/>
  <path class="cls-2" d="M440.9783,241.171a2.3381,2.3381,0,0,1,2.3437,2.3438v4.5019l2.2461-2.2461a2.3409,2.3409,0,0,1,3.3106,3.3106l-5.5665,5.5664v7.4707l6.4649-3.73,2.041-7.5976a2.3452,2.3452,0,0,1,4.5313,1.2109l-.82,3.0566,3.6231-2.09a2.345,2.345,0,0,1,2.3437,4.0625l-3.623,2.09,3.0762.82a2.3451,2.3451,0,0,1-1.211,4.5312l-7.5976-2.041-6.4746,3.74,6.4648,3.7305,7.5977-2.041a2.3451,2.3451,0,1,1,1.2109,4.5312l-3.0664.83,3.623,2.09a2.345,2.345,0,1,1-2.3437,4.0625l-3.6231-2.09.82,3.0762a2.3452,2.3452,0,0,1-4.5313,1.2109l-2.041-7.5976-6.4551-3.74v7.4707l5.5664,5.5664a2.3409,2.3409,0,1,1-3.31,3.3106l-2.2461-2.2461v4.4922a2.3438,2.3438,0,0,1-4.6875,0v-4.502l-2.2461,2.2461a2.3409,2.3409,0,1,1-3.3106-3.31l5.5664-5.5664v-7.461l-6.4648,3.7305-2.041,7.5977a2.3452,2.3452,0,0,1-4.5313-1.211l.8106-3.0664-3.6231,2.09a2.345,2.345,0,0,1-2.3437-4.0625l3.623-2.09-3.0761-.82a2.3452,2.3452,0,0,1,1.2109-4.5313l7.5977,2.0411,6.4746-3.74-6.4649-3.73-7.6074,2.0312a2.3451,2.3451,0,1,1-1.2109-4.5312l3.0761-.82-3.623-2.09a2.345,2.345,0,0,1,2.3437-4.0625l3.6231,2.09-.82-3.0761a2.3451,2.3451,0,0,1,4.5312-1.211l2.041,7.5977,6.4551,3.74v-7.4707l-5.5664-5.5566a2.3409,2.3409,0,1,1,3.3106-3.3106l2.246,2.2461v-4.5019a2.3382,2.3382,0,0,1,2.3438-2.3438Z" transform="translate(-390.9783 -215.0217)"/>
</svg>
