<svg id="Layer_6" data-name="Layer 6" xmlns="http://www.w3.org/2000/svg" viewBox="0 0 100 100">
  <defs>
    <style>
      .cls-1 {
        fill: #be2726;
      }

      .cls-2 {
        fill: #fff;
      }
    </style>
  </defs>
  <title>kat6</title>
  <rect class="cls-1" width="100" height="100" rx="20"/>
  <g>
    <path class="cls-2" d="M336.5087,425.9334a1.4444,1.4444,0,0,0,1.1053-1.7179l-.0013-.03a1.5941,1.5941,0,0,0-1.6745-1.51c-.9191-.026-1.8494.0716-2.7549-.0428a2.0788,2.0788,0,0,1-1.3152-.7255c-.8547-1.2035-1.58-2.4981-2.3673-3.75a6.0248,6.0248,0,0,0-5.2977-2.9792q-7.7982-.071-15.5953,0a5.982,5.982,0,0,0-5.2148,2.9049c-.7984,1.2442-1.5133,2.5464-2.3745,3.7442a2.2478,2.2478,0,0,1-1.3917.8c-.9428.1281-1.9176-.0075-2.8728.0581a1.5964,1.5964,0,0,0-1.5432,1.5627l-.0068.038a1.4348,1.4348,0,0,0,1.1842,1.6478c.5552.1544,1.0959.3608,1.7941.5944a11.0394,11.0394,0,0,0-2.24,6.881c-.0926,3.9965-.0725,7.9957-.0946,11.9939a1.1049,1.1049,0,0,0,1.2669,1.2406c1.36-.0038,2.7191-.0012,4.0786-.0012a1.1076,1.1076,0,0,0,1.2553-1.2521v-2.3069H330.4c0,.7687.0243,1.446-.0057,2.1209-.0449,1.0187.4235,1.4693,1.4335,1.4476,1.1189-.0243,2.2389-.0013,3.3589-.0055,1.6274-.0064,1.8168-.1858,1.8207-1.777.0066-2.6391.0236-5.2786-.0041-7.9176-.0378-3.5968.1-7.2376-2.3255-10.4367.7094-.2373,1.1921-.43,1.6914-.5584C336.4156,425.9512,336.4624,425.9435,336.5087,425.9334Zm-30.2923,7.8107a1.6335,1.6335,0,0,1-1.7217,1.4936c-.6345.0354-1.2725.0067-1.909.0067v-.0161a18.5629,18.5629,0,0,1-2.0265-.0125,2.3383,2.3383,0,1,1,.9751-4.5282c1.1728.3753,2.3279.807,3.4846,1.2309A1.6085,1.6085,0,0,1,306.2164,433.7441ZM302.56,426.51a1.9356,1.9356,0,0,1-1.3434-.4777c-.1653-.1953.1016-.8835.3262-1.26,1.1044-1.8519,2.2635-3.6709,3.3957-5.5062a4.3351,4.3351,0,0,1,3.8939-2.1688q7.6119-.03,15.2235.0059a4.2062,4.2062,0,0,1,3.7387,2.0011q1.8233,2.8874,3.5988,5.8033c.6923,1.1368.4352,1.61-.9036,1.6148-4.7148.0166-9.43.0066-14.1448.0066C311.75,426.53,307.1551,426.5427,302.56,426.51Zm29.8133,8.7009a18.1164,18.1164,0,0,1-2.1471.0148v.0174c-.6369,0-1.2754.0259-1.9105-.0062a1.6393,1.6393,0,0,1-1.6849-1.4046,1.58,1.58,0,0,1,1.1136-1.8755c1.2226-.4751,2.4563-.9322,3.7117-1.3094a2.328,2.328,0,0,1,2.9643,1.8286q.01.0618.0178.1241A2.3538,2.3538,0,0,1,332.3736,435.2108Z" transform="translate(-257.3165 -372.6618)"/>
    <path class="cls-2" d="M295.1667,421.5256a6.4217,6.4217,0,0,1,2.7745-.4633c1.9239-.0674,2.0432-.1071,2.6932-2.0128-.2463-.0119-.4754-.0325-.7046-.0325q-8.5788.01-17.1575-.0067c-1.4106-.0028-1.6686-.4774-.9361-1.6707,1.0876-1.7715,2.2286-3.511,3.2786-5.3044a4.7052,4.7052,0,0,1,4.4666-2.4508c4.8391.0367,9.6787.029,14.5178.0016a4.3329,4.3329,0,0,1,4.3117,2.4663c.6571,1.3843,1.6147,1.7147,3.12,1.3088-.5218-.8533-.9919-1.5906-1.4308-2.346a6.3717,6.3717,0,0,0-5.9417-3.351c-5.0392.02-10.0786-.008-15.1178.0143a6.062,6.062,0,0,0-5.3215,2.9334,11.6509,11.6509,0,0,0-1.1813,1.944l-.0127.0436a3.8107,3.8107,0,0,1-4.7373,2.57,2.4009,2.4009,0,0,0-.7181.0049,1.5911,1.5911,0,0,0-1.478,1.4854l-.0123.0528a1.4253,1.4253,0,0,0,1.0979,1.69c.5642.1789,1.1227.3758,1.5386.5158-.5691,1.607-1.4764,3.1034-1.5777,4.6534-.3121,4.78-.3269,9.5792-.4306,14.3717-.0179.8242.47,1.2119,1.3089,1.1989,1.3193-.0207,2.6393-.0172,3.9593,0a1.142,1.142,0,0,0,1.3273-1.3045c-.0039-.7451-.0008-1.4906-.0008-2.3476h11.3485l.155-2.476.2273-2.5643,1-2.9434C293.0786,425.8643,292.8621,422.7929,295.1667,421.5256Zm-8.6309,4.8642a1.3874,1.3874,0,0,1-1.4776,1.2911c-.7138.0391-1.4314.008-2.1473.008l0,0c-.6765.0008-1.3569.049-2.0281-.0091a2.3244,2.3244,0,1,1,.7009-4.5844,21.1713,21.1713,0,0,1,4.0195,1.4717,2.3161,2.3161,0,0,1,.9354,1.7072Q286.54,426.332,286.5358,426.39Z" transform="translate(-257.3165 -372.6618)"/>
    <path class="cls-2" d="M306.4755,402.5038l3.9,3.6313,2.7391-4.8094.9006,6.6786,5.3729-3.4375.176.1675-1.883,5.0908,5.125.3944.2107.3528-3.0634,2.7155c1.0143.1957,2.1579.4451,2.6837-.0136a65.2622,65.2622,0,0,0,4.5226-4.7128l-6.747-.4909,3.0484-8.1641-.2311-.1269-7.69,4.9291-1.2286-9.4759-4.393,7.73-5.0761-4.72-.6038,7.72,1.9.1209Z" transform="translate(-257.3165 -372.6618)"/>
  </g>
</svg>
