<svg id="Layer_7" data-name="Layer 7" xmlns="http://www.w3.org/2000/svg" viewBox="0 0 100 100">
  <defs>
    <style>
      .cls-1 {
        fill: #0c8943;
      }

      .cls-2 {
        fill: #fff;
      }
    </style>
  </defs>
  <title>kat7</title>
  <rect class="cls-1" width="100" height="100" rx="20"/>
  <g>
    <path class="cls-2" d="M325.295,127.4329q-31.3626-.0024-62.725.0005c-.2068,0-.4135.0273-.62.0419v30.2762c.2283.0111.4566.0321.6849.0321q31.3.0014,62.6.0014h.7267V127.4637C325.7371,127.4529,325.516,127.4329,325.295,127.4329ZM269.4868,144.416a1.9046,1.9046,0,0,1-1.8229-2.0595,1.9546,1.9546,0,0,1,2.0092-1.8838c.9574-.0147,1.9152-.003,2.8727-.003h0c.9367,0,1.8736-.0117,2.81.0028a1.9521,1.9521,0,0,1,2.0071,1.8853,1.8976,1.8976,0,0,1-1.821,2.058Q272.512,144.5109,269.4868,144.416Zm17.5327-3.9472c.9371.0011,1.8744-.01,2.8113.0041a1.984,1.984,0,0,1,2.0169,1.8868,1.9218,1.9218,0,0,1-1.8359,2.056q-3.0309.0935-6.0571-.0011l-.0106-.0006a1.9475,1.9475,0,0,1-1.8277-2.06,2.0086,2.0086,0,0,1,2.0294-1.8837c.0417-.0011.0832-.0011.1249-.0011H287.02Zm11.3955,3.9439a1.9055,1.9055,0,0,1-1.8136-2.07,1.988,1.988,0,0,1,2.028-1.8735c.0417-.001.0832-.0008.1249-.0008h2.7486c.937.0014,1.8742-.0113,2.811.0047a1.986,1.986,0,0,1,2.0117,1.8977,1.9262,1.9262,0,0,1-1.7921,2.0349c-2.0376.07-4.0807.0712-6.1185.0066Zm20.3549-3.94a1.9506,1.9506,0,0,1,2.0065,1.8855,1.8966,1.8966,0,0,1-1.8206,2.0578q-3.03.0952-6.0551,0a1.8976,1.8976,0,0,1-1.8209-2.059,1.96,1.96,0,0,1,2.0073-1.8867c.0416-.0011.0832-.0009.1249-.0009H315.96C316.8965,140.47,317.8334,140.458,318.77,140.4724Z" transform="translate(-244.2652 -92.6131)"/>
    <path class="cls-2" d="M325.1658,123.45h.8241c0-1.2235.05-2.369-.0164-3.5077a2.1807,2.1807,0,0,0-1.2967-1.9348,4.5961,4.5961,0,0,0-1.8042-.3641q-28.8261.0059-57.6522-.0307a3.0035,3.0035,0,0,0-3.2707,2.1055v3.7532c.2914-.0071.5827-.02.8741-.02Q293.9948,123.45,325.1658,123.45Z" transform="translate(-244.2652 -92.6131)"/>
    <path class="cls-2" d="M322.7513,167.5961a7.0674,7.0674,0,0,0,.997-.0483,2.3347,2.3347,0,0,0,2.1448-1.9664,35.0521,35.0521,0,0,0,.0319-3.8116h-.818q-31.1724,0-62.3449-.0006c-.2709,0-.5416-.0092-.8124-.0142v3.7532a3.0071,3.0071,0,0,0,3.2716,2.1049Q293.9862,167.5993,322.7513,167.5961Z" transform="translate(-244.2652 -92.6131)"/>
  </g>
</svg>
