<svg id="Layer_1" data-name="Layer 1" xmlns="http://www.w3.org/2000/svg" viewBox="0 0 573.4187 325.9731">
  <defs>
    <style>
      .cls-1 {
        fill: #fff;
      }
    </style>
  </defs>
  <title>users-line-solid</title>
  <g>
    <path class="cls-1" d="M464.07,406.8209c.0792-1.6105.188-2.6.1675-3.5863A131.5226,131.5226,0,0,0,449.44,344.5872c-18.589-35.8219-47.355-59.1239-86.3108-69.5229-18.9331-5.054-38.29-4.7986-57.7344-3.4955-29.39,1.97-54.8718,13.2138-76.8869,32.1984-21.5529,18.586-35.5712,42.1584-42.58,69.75a104.2076,104.2076,0,0,0-3.44,33.3039ZM237.8744,165.7141c-.9317,45.7278,34.3035,84.5875,82.2,86.2072,47.71,1.6134,84.1161-32.9484,88.1117-76.4607,5.05-54.9925-35.9418-91.0365-77.619-94.3283C278.5956,77.0274,237.3157,117.9429,237.8744,165.7141Zm-39.49,44.424A62.41,62.41,0,0,0,73.65,206.41c-1.802,37.5264,27.4669,66.0834,62.3523,65.9516A62.2165,62.2165,0,0,0,198.3849,210.1381Zm367.2837-.1528a61.6957,61.6957,0,0,0-62.2315-62.7044c-36.8663.2166-63.0034,27.833-62.6637,62.7224.3575,36.6982,27.4861,62.0522,62.6578,62.2873A61.817,61.817,0,0,0,565.6686,209.9853ZM204.4455,299.0008c-2.0888-1.1344-3.3287-1.9543-4.676-2.5171-15.7584-6.5831-32.3895-9.4685-49.2657-10.3029-11.7445-.5806-23.5681.4005-35.3551.7279-13.8734.3854-27.1813,3.6249-40.1055,8.4288-13.5471,5.0354-24.7511,13.2428-32.38,25.736-6.3183,10.3469-10.0524,21.4507-9.2694,33.6175.7807.33,1.0741.5619,1.3678.5623q66.483.0831,132.9657.0093c1.27-.0031,3.2021-1.5876,3.7019-2.872,6.2955-16.177,14.5135-31.2092,25.7194-44.5374C199.4547,305.11,201.709,302.3236,204.4455,299.0008Zm402.2639,56.3967c-.4834-4.0548-.7163-7.1747-1.2445-10.2437-2.7129-15.76-9.6791-29.1512-22.452-39.103-19.5272-15.2142-42.8453-18.6033-66.4023-19.792a277.39,277.39,0,0,0-44.1751,1.7752c-11.003,1.2127-21.7526,4.7243-33.4008,7.3925,2.4981,3.1716,3.8929,5.2421,5.5805,7.0375,13.1419,13.9814,22.4772,30.3479,29.4267,48.05,1.6311,4.1545,3.64,4.9595,7.5413,4.949q59.468-.16,118.9366-.0653Z" transform="translate(-33.2906 -80.8478)"/>
    <path d="M464.07,406.8209H182.4873a104.2076,104.2076,0,0,1,3.44-33.3039c7.0093-27.5914,21.0276-51.1638,42.5805-69.75,22.0151-18.9846,47.4967-30.2287,76.8869-32.1984,19.4441-1.3031,38.8013-1.5585,57.7344,3.4955,38.9558,10.399,67.7218,33.701,86.3108,69.5229a131.5226,131.5226,0,0,1,14.7978,58.6474C464.2581,404.2212,464.1493,405.21,464.07,406.8209Z" transform="translate(-33.2906 -80.8478)"/>
    <path d="M237.8744,165.7141c-.5587-47.7712,40.7212-88.6867,92.6924-84.5818,41.6772,3.2918,82.6687,39.3358,77.619,94.3283-3.9956,43.5123-40.4016,78.0741-88.1117,76.4607C272.1779,250.3016,236.9427,211.4419,237.8744,165.7141Z" transform="translate(-33.2906 -80.8478)"/>
    <path d="M198.3849,210.1381a62.2165,62.2165,0,0,1-62.3828,62.223c-34.8854.1318-64.1543-28.4252-62.3523-65.9516a62.41,62.41,0,0,1,124.7351,3.7286Z" transform="translate(-33.2906 -80.8478)"/>
    <path d="M565.6686,209.9853a61.817,61.817,0,0,1-62.2374,62.3053c-35.1717-.2351-62.3-25.5891-62.6578-62.2873-.34-34.8894,25.7974-62.5058,62.6637-62.7224A61.6957,61.6957,0,0,1,565.6686,209.9853Z" transform="translate(-33.2906 -80.8478)"/>
    <path d="M204.4455,299.0008c-2.7365,3.3228-4.9908,6.1094-7.297,8.8524-11.2059,13.3282-19.4239,28.36-25.7194,44.5374-.5,1.2844-2.4319,2.8689-3.7019,2.872q-66.4824.1641-132.9657-.0093c-.2937,0-.5871-.2327-1.3678-.5623-.783-12.1668,2.9511-23.2706,9.2694-33.6175,7.629-12.4932,18.833-20.7006,32.38-25.736,12.9242-4.8039,26.2321-8.0434,40.1055-8.4288,11.787-.3274,23.6106-1.3085,35.3551-.7279,16.8762.8344,33.5073,3.72,49.2657,10.3029C201.1168,297.0465,202.3567,297.8664,204.4455,299.0008Z" transform="translate(-33.2906 -80.8478)"/>
    <path d="M606.7094,355.3975h-6.19q-59.4684,0-118.9366.0653c-3.9011.01-5.91-.7945-7.5413-4.949-6.9495-17.7019-16.2848-34.0684-29.4267-48.05-1.6876-1.7954-3.0824-3.8659-5.5805-7.0375,11.6482-2.6682,22.3978-6.18,33.4008-7.3925a277.39,277.39,0,0,1,44.1751-1.7752c23.557,1.1887,46.8751,4.5778,66.4023,19.792,12.7729,9.9518,19.7391,23.3426,22.452,39.103C605.9931,348.2228,606.226,351.3427,606.7094,355.3975Z" transform="translate(-33.2906 -80.8478)"/>
  </g>
</svg>
