<svg id="Layer_1" data-name="Layer 1" xmlns="http://www.w3.org/2000/svg" viewBox="0 0 281.9756 325.9731">
  <defs>
    <style>
      .cls-1 {
        fill: #fff;
      }
    </style>
  </defs>
  <title>user</title>
  <g>
    <path class="cls-1" d="M464.07,406.8209c.0792-1.6105.188-2.6.1675-3.5863A131.5226,131.5226,0,0,0,449.44,344.5872c-18.589-35.8219-47.355-59.1239-86.3108-69.5229-18.9331-5.054-38.29-4.7986-57.7344-3.4955-29.39,1.97-54.8718,13.2138-76.8869,32.1984-21.5529,18.586-35.5712,42.1584-42.58,69.75a104.2076,104.2076,0,0,0-3.44,33.3039ZM237.8744,165.7141c-.9317,45.7278,34.3035,84.5875,82.2,86.2072,47.71,1.6134,84.1161-32.9484,88.1117-76.4607,5.05-54.9925-35.9418-91.0365-77.619-94.3283C278.5956,77.0274,237.3157,117.9429,237.8744,165.7141Z" transform="translate(-182.2644 -80.8478)"/>
    <path d="M464.07,406.8209H182.4873a104.2076,104.2076,0,0,1,3.44-33.3039c7.0093-27.5914,21.0276-51.1638,42.5805-69.75,22.0151-18.9846,47.4967-30.2287,76.8869-32.1984,19.4441-1.3031,38.8013-1.5585,57.7344,3.4955,38.9558,10.399,67.7218,33.701,86.3108,69.5229a131.5226,131.5226,0,0,1,14.7978,58.6474C464.2581,404.2212,464.1493,405.21,464.07,406.8209Z" transform="translate(-182.2644 -80.8478)"/>
    <path d="M237.8744,165.7141c-.5587-47.7712,40.7212-88.6867,92.6924-84.5818,41.6772,3.2918,82.6687,39.3358,77.619,94.3283-3.9956,43.5123-40.4016,78.0741-88.1117,76.4607C272.1779,250.3016,236.9427,211.4419,237.8744,165.7141Z" transform="translate(-182.2644 -80.8478)"/>
  </g>
</svg>
