<svg id="Layer_1" data-name="Layer 1" xmlns="http://www.w3.org/2000/svg" viewBox="0 0 70.5223 77.7576">
  <defs>
    <style>
      .cls-1 {
        fill: none;
      }
    </style>
  </defs>
  <title>zahtjev</title>
  <g>
    <path class="cls-1" d="M318.07,448.3846a1.5318,1.5318,0,0,1,.3526-.146q1.7389-.0206,3.4782-.0285c1.74-.0091,2.1709-.4361,2.1762-2.211.0076-2.52.0378-5.04-.0193-7.559a2.1174,2.1174,0,0,1,.9374-1.8509,30.7365,30.7365,0,0,0,4.4535-4.46,13.4646,13.4646,0,0,0,2.5546-7.9835c.0314-1.2306-.502-1.9078-1.46-1.9306-.96-.0229-1.4824.5892-1.5756,1.8485-.0177.2393-.0278.4791-.0459.7184a12.4123,12.4123,0,1,1-7.46-12.4924c1.7444.7142,2.6126.1575,2.6135-1.6993q.0068-13.0191.0006-26.0381c-.0007-1.626-.456-2.0979-2.0393-2.0983q-22.918-.0059-45.8363-.0009c-1.5114,0-2.0054.4973-2.0168,2.0016-.01,1.3027-.0021,2.6055-.0021,3.9913-1.4529,0-2.7267-.0085-4,.0022-1.502.0126-1.9864.5031-2,2.0268-.0112,1.302-.0023,2.6041-.0023,3.975-1.418,0-2.6529-.0048-3.8879.0011-1.6519.0079-2.1116.47-2.1117,2.1544q-.0027,30.7177.0017,61.4355c0,1.7325.4454,2.1664,2.2128,2.1665q22.7983.002,45.5968,0c1.5959,0,2.0724-.4712,2.0832-2.0576.0088-1.2981.0018-2.5964.0018-3.9357,1.5788,0,2.9379.0241,4.2957-.0075a1.5263,1.5263,0,0,0,1.692-1.72C318.09,451.1284,318.07,449.77,318.07,448.3846Zm-1.2919-22.9409c-1.6327-2.2383-3.2-4.401-4.7836-6.5512-.7143-.97-1.5873-1.1775-2.342-.6018a1.5771,1.5771,0,0,0-.14,2.3331q2.8071,3.885,5.6541,7.741c.8142,1.0986,1.6235,1.19,2.6163.275q7.1373-6.5817,14.239-13.202a1.5046,1.5046,0,0,0,.2425-2.3106,1.5618,1.5618,0,0,0-2.3291.1347c-1.1276,1.0163-2.2312,2.0592-3.3449,3.0909C323.3412,419.3634,320.0916,422.3741,316.7784,425.4437Z" transform="translate(-262.1793 -382.4511)"/>
    <path d="M318.07,448.3846c0,1.3852.02,2.7438-.0061,4.1016a1.5263,1.5263,0,0,1-1.692,1.72c-1.3578.0316-2.7169.0075-4.2957.0075,0,1.3393.007,2.6376-.0018,3.9357-.0108,1.5864-.4873,2.0575-2.0832,2.0576q-22.7983.0027-45.5968,0c-1.7674,0-2.2126-.434-2.2128-2.1665q-.0038-30.7178-.0017-61.4355c0-1.6848.46-2.1465,2.1117-2.1544,1.235-.0059,2.47-.0011,3.8879-.0011,0-1.3709-.0089-2.673.0023-3.975.0131-1.5237.4975-2.0142,2-2.0268,1.2736-.0107,2.5474-.0022,4-.0022,0-1.3858-.0078-2.6886.0021-3.9913.0114-1.5043.5054-2.0013,2.0168-2.0016q22.9182-.0048,45.8363.0009c1.5833,0,2.0386.4723,2.0393,2.0983q.0054,13.019-.0006,26.0381c-.0009,1.8568-.8691,2.4135-2.6135,1.6993a12.4212,12.4212,0,1,0,7.46,12.4924c.0181-.2393.0282-.4791.0459-.7184.0932-1.2593.6155-1.8714,1.5756-1.8485.9581.0228,1.4915.7,1.46,1.9306a13.4646,13.4646,0,0,1-2.5546,7.9835,30.7365,30.7365,0,0,1-4.4535,4.46,2.1174,2.1174,0,0,0-.9374,1.8509c.0571,2.5186.0269,5.0392.0193,7.559-.0053,1.7749-.4357,2.2019-2.1762,2.211q-1.7391.0091-3.4782.0285A1.5318,1.5318,0,0,0,318.07,448.3846Zm-52.7877,8.7078h43.6747c.0265-.2658.0622-.458.0623-.65.0037-6.1584.0206-12.317-.0312-18.4749a1.8759,1.8759,0,0,0-.8147-1.2561,15.45,15.45,0,0,1,.0911-26.0277,1.4859,1.4859,0,0,0,.77-1.4416c-.0258-3.5989-.01-7.198-.0164-10.7971a7.7611,7.7611,0,0,0-.0924-.87H265.2826Zm12.0031-68.6455h1.5553q18.5392.0007,37.0784.003c1.6876,0,2.1495.4539,2.1508,2.1106q.0066,8.16.0027,16.3193c0,.4666,0,.9331,0,1.38l2.8567.5448V385.582H277.2857Zm37.6747,3.1316H271.3117V394.45h1.4924q18.3438,0,36.6877,0c2.2939,0,2.5843.2987,2.5844,2.6407q0,5.2155,0,10.4308v1.3258l2.884-.5822Zm-.0058,59.5177V439.1213l-2.8093-.5379v12.5128Zm3.1767-6.0032h2.82v-6.5047l-2.82.55Z" transform="translate(-262.1793 -382.4511)"/>
    <path d="M316.7784,425.4437c3.3132-3.07,6.5628-6.08,9.8125-9.0909,1.1137-1.0317,2.2173-2.0746,3.3449-3.0909a1.5618,1.5618,0,0,1,2.3291-.1347,1.5046,1.5046,0,0,1-.2425,2.3106q-7.1047,6.6168-14.239,13.202c-.9928.9155-1.8021.8236-2.6163-.275q-2.8539-3.8506-5.6541-7.741a1.5771,1.5771,0,0,1,.14-2.3331c.7547-.5757,1.6277-.3678,2.342.6018C313.5787,421.0427,315.1457,423.2054,316.7784,425.4437Z" transform="translate(-262.1793 -382.4511)"/>
    <path d="M285.9118,448.4477q-6.29.0006-12.58-.0016c-1.3107-.0016-2.0179-.541-2.0184-1.5082,0-.9488.7359-1.5242,2.0223-1.5251q12.64-.0087,25.28.0014c1.3421.0014,2.0039.5324,2,1.5253-.0037.9978-.6613,1.504-2.0042,1.5058Q292.2617,448.4539,285.9118,448.4477Z" transform="translate(-262.1793 -382.4511)"/>
    <path d="M285.9678,411.2686q-6.35.0007-12.6993-.0026c-1.2391-.0025-1.9167-.5255-1.9528-1.4541-.0377-.9671.6752-1.5325,1.9728-1.561.2794-.0061.5591-.0024.8386-.0024q3.654,0,7.3081,0,8.5061-.0025,17.0122-.0062c.2,0,.4-.01.5988.0032.9873.0665,1.5948.5663,1.56,1.5849a1.3988,1.3988,0,0,1-1.58,1.4285c-1.7171.0144-3.4343.0085-5.1515.0091Q289.9213,411.2693,285.9678,411.2686Z" transform="translate(-262.1793 -382.4511)"/>
    <path d="M286.0721,436.1481q6.1194-.0018,12.2387,0a7.81,7.81,0,0,1,.9587.0251,1.371,1.371,0,0,1,1.3365,1.5379,1.3234,1.3234,0,0,1-1.3495,1.3993c-1.1975.054-2.3989.0266-3.5987.0269q-10.9788.0021-21.9577.0007c-.32,0-.6423.0218-.9593-.0094a1.4,1.4,0,0,1-1.4072-1.49,1.3687,1.3687,0,0,1,1.4205-1.4682c.9582-.0415,1.9193-.0194,2.8791-.02Q280.8526,436.1478,286.0721,436.1481Z" transform="translate(-262.1793 -382.4511)"/>
    <path d="M284.8257,417.5236q5.63,0,11.26.0049c.3946.0009.9131-.0725,1.1563.139a2.5157,2.5157,0,0,1,.9733,1.4427c.0195.4366-.5491.9538-.9547,1.3311-.1875.1745-.606.1341-.92.1344q-11.499.0095-22.9981.0049c-.12,0-.24.0016-.3593-.0024-.9831-.0334-1.6418-.5173-1.6492-1.5133a1.467,1.467,0,0,1,1.6339-1.5331c1.8361-.0311,3.6731-.0084,5.51-.0083Z" transform="translate(-262.1793 -382.4511)"/>
    <path d="M284.7188,429.8772q-5.5695-.0014-11.139-.0053c-.3956-.0008-.9047.0776-1.1614-.1289-.45-.3625-1.0629-.9451-1.0243-1.3842.0459-.5216.6627-1.0389,1.1247-1.4552.1826-.1645.6148-.0637.9334-.0637q11.3187-.0028,22.6374-.0007c.16,0,.3194.0027.479,0a1.4882,1.4882,0,0,1,1.7107,1.4432c.0876.9019-.6017,1.5381-1.7032,1.583-.9566.039-1.916.012-2.8742.0122Q289.21,429.8787,284.7188,429.8772Z" transform="translate(-262.1793 -382.4511)"/>
  </g>
</svg>
